<svg width="513" height="507" viewBox="0 0 513 507" fill="none" xmlns="http://www.w3.org/2000/svg">
<path d="M328.72 236.194H183.28V185.062C187.28 89.8226 324.8 89.9015 328.72 185.062V236.194ZM256 313.048C252.987 313.048 250.098 314.229 247.967 316.33C245.837 318.431 244.64 321.281 244.64 324.253C244.64 327.225 245.837 330.075 247.967 332.176C250.098 334.277 252.987 335.458 256 335.458C259.013 335.458 261.902 334.277 264.033 332.176C266.163 330.075 267.36 327.225 267.36 324.253C267.36 321.281 266.163 318.431 264.033 316.33C261.902 314.229 259.013 313.048 256 313.048ZM368.8 272.254V331.986C368.781 348.868 361.973 365.054 349.87 376.992C337.767 388.93 321.357 395.644 304.24 395.663H207.68C190.564 395.644 174.154 388.93 162.05 376.992C149.947 365.054 143.139 348.868 143.12 331.986V272.254C143.131 267.109 145.207 262.178 148.896 258.54C152.584 254.902 157.584 252.853 162.8 252.843H349.2C354.408 252.855 359.398 254.907 363.074 258.547C366.749 262.187 368.809 267.117 368.8 272.254ZM256 296.478C249.311 296.535 242.86 298.939 237.804 303.259C232.748 307.579 229.416 313.533 228.406 320.056C227.395 326.578 228.771 333.242 232.288 338.855C235.805 344.467 241.233 348.662 247.6 350.687V360.392C247.6 362.589 248.485 364.697 250.06 366.251C251.636 367.804 253.772 368.677 256 368.677C258.228 368.677 260.364 367.804 261.94 366.251C263.515 364.697 264.4 362.589 264.4 360.392V350.687C270.767 348.662 276.195 344.467 279.712 338.855C283.229 333.242 284.605 326.578 283.594 320.056C282.584 313.533 279.252 307.579 274.196 303.259C269.14 298.939 262.689 296.535 256 296.478ZM512 254.5C512 304.44 496.986 353.258 468.856 394.781C440.727 436.305 400.745 468.668 353.967 487.779C307.189 506.891 255.716 511.891 206.057 502.148C156.398 492.405 110.783 468.357 74.9808 433.044C39.1785 397.732 14.7969 352.74 4.91908 303.76C-4.95873 254.78 0.11092 204.011 19.4869 157.872C38.863 111.734 71.6751 72.299 113.774 44.5539C155.873 16.8089 205.368 2 256 2C323.893 2.00837 389.003 28.6137 437.01 75.9648C485.017 123.316 511.992 187.535 512 254.5ZM385.68 272.254C385.674 262.706 381.831 253.549 374.993 246.79C368.155 240.031 358.881 236.221 349.2 236.194H345.6V185.062C345.6 173.457 343.282 161.965 338.78 151.243C334.277 140.521 327.677 130.778 319.357 122.572C311.037 114.366 301.159 107.856 290.288 103.415C279.418 98.9734 267.766 96.6875 256 96.6875C244.234 96.6875 232.582 98.9734 221.712 103.415C210.841 107.856 200.963 114.366 192.643 122.572C184.323 130.778 177.723 140.521 173.22 151.243C168.718 161.965 166.4 173.457 166.4 185.062V236.194H162.8C153.12 236.221 143.845 240.031 137.007 246.79C130.169 253.549 126.326 262.706 126.32 272.254V331.986C126.32 353.276 134.889 373.696 150.145 388.757C165.401 403.819 186.095 412.291 207.68 412.312H304.24C325.837 412.306 346.548 403.841 361.82 388.778C377.091 373.716 385.674 353.288 385.68 331.986V272.254Z" fill="url(#paint0_linear_8_18)"/>
<path fill-rule="evenodd" clip-rule="evenodd" d="M503.579 226.728C509.203 232.136 512.362 239.47 512.362 247.117C512.362 254.763 509.203 262.097 503.579 267.505L263.579 498.209C257.953 503.615 250.324 506.652 242.369 506.652C234.414 506.652 226.784 503.615 221.159 498.209L101.159 382.857C98.2933 380.197 96.0079 377.015 94.4356 373.496C92.8633 369.978 92.0357 366.194 92.0011 362.365C91.9665 358.536 92.7256 354.738 94.234 351.194C95.7424 347.65 97.97 344.43 100.787 341.723C103.604 339.015 106.953 336.874 110.64 335.424C114.327 333.974 118.277 333.244 122.261 333.277C126.244 333.311 130.181 334.106 133.841 335.618C137.501 337.129 140.811 339.326 143.579 342.08L242.369 437.044L461.159 226.728C466.784 221.322 474.414 218.285 482.369 218.285C490.324 218.285 497.953 221.322 503.579 226.728Z" fill="url(#paint1_linear_8_18)"/>
<defs>
<linearGradient id="paint0_linear_8_18" x1="0.000115165" y1="254.5" x2="512" y2="254.5" gradientUnits="userSpaceOnUse">
<stop stop-color="#C0392B"/>
<stop offset="1" stop-color="#8E44AD"/>
</linearGradient>
<linearGradient id="paint1_linear_8_18" x1="92.3687" y1="218.279" x2="361.517" y2="610.241" gradientUnits="userSpaceOnUse">
<stop stop-color="#4EA2EA"/>
<stop offset="0.0885417" stop-color="#436B99"/>
<stop offset="0.245" stop-color="#0A4E35"/>
<stop offset="0.484" stop-color="#00FF47"/>
<stop offset="0.724" stop-color="#F640BB"/>
<stop offset="0.95" stop-color="#FB6D64"/>
</linearGradient>
</defs>
</svg>
