<svg width="512" height="512" viewBox="0 0 512 512" fill="none" xmlns="http://www.w3.org/2000/svg">
<g clip-path="url(#clip0_1_2)">
<path d="M512 256C510.5 341.6 495.4 410.5 452.3 452.3C410.5 495.4 341.6 510.5 256 512C170.4 510.5 101.5 495.4 59.7 452.3C16.6 410.5 1.5 341.6 0 256C1.5 170.4 16.6 101.5 59.7 59.7C101.5 16.6 170.4 1.5 256 0C341.6 1.5 410.5 16.6 452.3 59.7C495.4 101.5 510.5 170.4 512 256Z" fill="url(#paint0_linear_1_2)"/>
<path d="M407 152.3C404.5 150.2 401.4 148.9 397.9 148.9H114.1C110.6 148.9 107.4 150.2 105 152.3C102 154.9 100.1 158.7 100.1 163V349.2C100.1 353.5 102 357.3 105 359.9C107.5 362 110.6 363.3 114.1 363.3H398C401.5 363.3 404.7 362 407.1 359.9C410.1 357.3 412 353.5 412 349.2V162.9C412 158.7 410.1 154.8 407 152.3Z" fill="url(#paint1_linear_1_2)"/>
<path d="M407 359.7C404.5 361.8 401.4 363.1 397.9 363.1H114.1C110.6 363.1 107.4 361.8 105 359.7L256 256L407 359.7Z" fill="url(#paint2_linear_1_2)"/>
<path d="M407 152.3L263 304C259.2 308 252.8 308 249 304L105 152.3C107.5 150.2 110.6 148.9 114.1 148.9H398C401.4 148.9 404.6 150.2 407 152.3Z" fill="url(#paint3_linear_1_2)"/>
</g>
<defs>
<linearGradient id="paint0_linear_1_2" x1="61.162" y1="61.162" x2="460.761" y2="460.761" gradientUnits="userSpaceOnUse">
<stop stop-color="#8385AB"/>
<stop offset="1" stop-color="#424566"/>
</linearGradient>
<linearGradient id="paint1_linear_1_2" x1="256" y1="138.634" x2="256" y2="357.195" gradientUnits="userSpaceOnUse">
<stop stop-color="#E9EDFF"/>
<stop offset="0.113" stop-color="#D8DEFF"/>
<stop offset="0.253" stop-color="#CDD3FF"/>
<stop offset="0.451" stop-color="#C6CDFF"/>
<stop offset="1" stop-color="#C4CBFF"/>
</linearGradient>
<linearGradient id="paint2_linear_1_2" x1="255.997" y1="258.889" x2="255.997" y2="364.082" gradientUnits="userSpaceOnUse">
<stop stop-color="#FAFBFF"/>
<stop offset="1" stop-color="#C4CBFF"/>
</linearGradient>
<linearGradient id="paint3_linear_1_2" x1="256" y1="148.591" x2="256" y2="299.3" gradientUnits="userSpaceOnUse">
<stop stop-color="#FAFBFF"/>
<stop offset="1" stop-color="#C4CBFF"/>
</linearGradient>
<clipPath id="clip0_1_2">
<rect width="512" height="512" fill="white"/>
</clipPath>
</defs>
</svg>
