<svg width="512" height="512" viewBox="0 0 512 512" fill="none" xmlns="http://www.w3.org/2000/svg">
<g clip-path="url(#clip0_1_8)">
<path d="M328.72 237.44H183.28V185.6C187.28 89.04 324.8 89.12 328.72 185.6V237.44ZM256 315.36C252.987 315.36 250.098 316.557 247.967 318.687C245.837 320.818 244.64 323.707 244.64 326.72C244.64 329.733 245.837 332.622 247.967 334.753C250.098 336.883 252.987 338.08 256 338.08C259.013 338.08 261.902 336.883 264.033 334.753C266.163 332.622 267.36 329.733 267.36 326.72C267.36 323.707 266.163 320.818 264.033 318.687C261.902 316.557 259.013 315.36 256 315.36ZM368.8 274V334.56C368.781 351.677 361.973 368.087 349.87 380.19C337.767 392.293 321.357 399.101 304.24 399.12H207.68C190.564 399.101 174.154 392.293 162.05 380.19C149.947 368.087 143.139 351.677 143.12 334.56V274C143.131 268.784 145.208 263.784 148.896 260.096C152.584 256.407 157.584 254.331 162.8 254.32H349.2C354.408 254.333 359.398 256.413 363.074 260.103C366.749 263.793 368.809 268.792 368.8 274ZM256 298.56C249.311 298.618 242.861 301.055 237.804 305.435C232.748 309.815 229.416 315.852 228.406 322.464C227.395 329.077 228.771 335.834 232.288 341.524C235.806 347.214 241.233 351.467 247.6 353.52V363.36C247.6 365.588 248.485 367.724 250.06 369.3C251.636 370.875 253.772 371.76 256 371.76C258.228 371.76 260.365 370.875 261.94 369.3C263.515 367.724 264.4 365.588 264.4 363.36V353.52C270.767 351.467 276.195 347.214 279.712 341.524C283.229 335.834 284.605 329.077 283.595 322.464C282.584 315.852 279.252 309.815 274.196 305.435C269.14 301.055 262.689 298.618 256 298.56ZM512 256C512 306.632 496.986 356.127 468.856 398.226C440.727 440.325 400.745 473.137 353.967 492.513C307.189 511.889 255.716 516.959 206.057 507.081C156.398 497.203 110.783 472.822 74.9808 437.019C39.1785 401.217 14.7969 355.602 4.91908 305.943C-4.95873 256.284 0.11092 204.811 19.487 158.033C38.863 111.255 71.6751 71.2734 113.774 43.1438C155.873 15.0141 205.368 0 256 0C323.893 0.00848501 389.003 26.9826 437.01 74.99C485.018 122.998 511.992 188.107 512 256ZM385.68 274C385.674 264.319 381.831 255.036 374.993 248.183C368.156 241.331 358.881 237.468 349.2 237.44H345.6V185.6C345.6 173.834 343.283 162.182 338.78 151.312C334.277 140.441 327.677 130.563 319.357 122.243C311.037 113.923 301.159 107.323 290.289 102.82C279.418 98.3176 267.767 96 256 96C244.234 96 232.582 98.3176 221.712 102.82C210.841 107.323 200.963 113.923 192.643 122.243C184.323 130.563 177.723 140.441 173.221 151.312C168.718 162.182 166.4 173.834 166.4 185.6V237.44H162.8C153.12 237.468 143.845 241.331 137.007 248.183C130.169 255.036 126.326 264.319 126.32 274V334.56C126.32 356.145 134.889 376.848 150.145 392.118C165.401 407.389 186.095 415.979 207.68 416H304.24C325.837 415.994 346.548 407.411 361.82 392.14C377.091 376.868 385.674 356.157 385.68 334.56V274Z" fill="url(#paint0_linear_1_8)"/>
</g>
<defs>
<linearGradient id="paint0_linear_1_8" x1="0.000115165" y1="256" x2="512" y2="256" gradientUnits="userSpaceOnUse">
<stop stop-color="#26975A"/>
<stop offset="1" stop-color="#445BAD"/>
</linearGradient>
<clipPath id="clip0_1_8">
<rect width="512" height="512" fill="white"/>
</clipPath>
</defs>
</svg>
