<svg width="454" height="512" viewBox="0 0 454 512" fill="none" xmlns="http://www.w3.org/2000/svg">
<g clip-path="url(#clip0_8_11)">
<path d="M306.6 305.1H147.4C65.9 305.1 -0.0999985 371.1 -0.0999985 452.6C-0.0999985 485.4 26.5 512 59.3 512H394.7C427.5 512 454.1 485.4 454.1 452.6C454.1 371.1 388.1 305.1 306.6 305.1Z" fill="url(#paint0_linear_8_11)"/>
<path d="M227 263C299.625 263 358.5 204.125 358.5 131.5C358.5 58.8746 299.625 0 227 0C154.375 0 95.5 58.8746 95.5 131.5C95.5 204.125 154.375 263 227 263Z" fill="url(#paint1_linear_8_11)"/>
</g>
<defs>
<linearGradient id="paint0_linear_8_11" x1="-35.825" y1="408.555" x2="474.905" y2="408.555" gradientUnits="userSpaceOnUse">
<stop stop-color="#F69A17"/>
<stop offset="0.52" stop-color="#DF384A"/>
<stop offset="1" stop-color="#AC0E85"/>
</linearGradient>
<linearGradient id="paint1_linear_8_11" x1="-35.825" y1="131.53" x2="474.905" y2="131.53" gradientUnits="userSpaceOnUse">
<stop stop-color="#F69A17"/>
<stop offset="0.52" stop-color="#DF384A"/>
<stop offset="1" stop-color="#AC0E85"/>
</linearGradient>
<clipPath id="clip0_8_11">
<rect width="454" height="512" fill="white"/>
</clipPath>
</defs>
</svg>
