<svg width="512" height="512" viewBox="0 0 512 512" fill="none" xmlns="http://www.w3.org/2000/svg">
<path d="M159.644 130.704H64.709L69.432 101.25C70.958 91.737 79.166 84.74 88.8 84.74H135.552C145.186 84.74 153.395 91.737 154.92 101.25L159.644 130.704Z" fill="#7F9AE6"/>
<path opacity="0.2" d="M113.988 84.74H88.801C79.167 84.74 70.958 91.737 69.433 101.25L64.71 130.704H139.519C113.113 119.457 103.749 103.92 113.988 84.74Z" fill="#254A74"/>
<path d="M352.357 130.704H447.292L442.569 101.25C441.043 91.7372 432.835 84.7402 423.201 84.7402H376.449C366.815 84.7402 358.606 91.7372 357.081 101.25L352.357 130.704Z" fill="#7F9AE6"/>
<path opacity="0.2" d="M401.636 84.7402H376.449C366.815 84.7402 358.606 91.7372 357.081 101.25L352.358 130.704H427.167C400.76 119.457 391.396 103.92 401.636 84.7402Z" fill="#254A74"/>
<path d="M511.16 352.603L482.467 175.041C476.766 139.761 446.308 113.829 410.57 113.829H383.441C366.827 113.829 350.563 118.6 336.582 127.575L330.127 131.719C319.43 138.586 306.986 142.237 294.274 142.237H217.722C205.01 142.237 192.566 138.586 181.869 131.719L175.414 127.575C161.433 118.6 145.169 113.829 128.555 113.829H101.426C65.688 113.829 35.23 139.76 29.529 175.041L0.839992 352.603C-5.48601 391.753 24.743 427.259 64.401 427.259C95.638 427.259 122.369 404.837 127.804 374.077L143.912 282.917H368.089L384.197 374.077C389.632 404.837 416.363 427.259 447.6 427.259C487.257 427.26 517.487 391.753 511.16 352.603Z" fill="#B74B4B"/>
<path d="M201.07 212.13C212.264 212.13 221.338 204.904 221.338 195.99C221.338 187.076 212.264 179.85 201.07 179.85C189.877 179.85 180.802 187.076 180.802 195.99C180.802 204.904 189.877 212.13 201.07 212.13Z" fill="#E38892"/>
<path d="M310.931 212.13C322.124 212.13 331.199 204.904 331.199 195.99C331.199 187.076 322.124 179.85 310.931 179.85C299.737 179.85 290.663 187.076 290.663 195.99C290.663 204.904 299.737 212.13 310.931 212.13Z" fill="#E38892"/>
<path d="M212.883 187.386C210.894 187.386 208.987 186.596 207.58 185.19C206.174 183.783 205.383 181.875 205.383 179.886V172.73C205.383 168.587 208.741 165.23 212.883 165.23C217.025 165.23 220.383 168.587 220.383 172.73V179.886C220.383 181.875 219.593 183.783 218.187 185.19C216.78 186.596 214.873 187.386 212.883 187.386ZM299.117 187.386C297.128 187.386 295.221 186.596 293.814 185.19C292.408 183.783 291.617 181.875 291.617 179.886V172.73C291.617 168.587 294.975 165.23 299.117 165.23C303.259 165.23 306.617 168.587 306.617 172.73V179.886C306.617 181.875 305.827 183.783 304.421 185.19C303.014 186.596 301.107 187.386 299.117 187.386ZM256 192.882C252.774 192.882 249.585 192.19 246.649 190.853C243.713 189.515 241.097 187.565 238.978 185.131C237.686 183.63 237.04 181.678 237.181 179.702C237.323 177.725 238.241 175.885 239.734 174.584C241.228 173.282 243.176 172.624 245.153 172.754C247.13 172.884 248.976 173.79 250.286 175.276C250.997 176.094 251.875 176.749 252.86 177.199C253.846 177.648 254.916 177.881 255.999 177.882C258.187 177.882 260.269 176.932 261.712 175.276C263.019 173.777 264.868 172.858 266.853 172.721C268.837 172.585 270.795 173.242 272.294 174.549C273.794 175.856 274.713 177.705 274.849 179.69C274.986 181.674 274.328 183.632 273.021 185.131C270.903 187.565 268.288 189.516 265.351 190.853C262.415 192.19 259.227 192.882 256 192.882Z" fill="#495059"/>
<path opacity="0.2" d="M193.112 137.494C189.19 135.931 185.426 133.997 181.872 131.719L175.417 127.575C161.436 118.6 145.172 113.829 128.558 113.829H101.429C65.691 113.829 35.233 139.76 29.532 175.041L0.839992 352.603C-5.48601 391.753 24.743 427.259 64.401 427.259C95.638 427.259 122.369 404.838 127.804 374.077L143.912 282.917H266.402C208.271 244.137 191.296 174.571 193.112 137.494Z" fill="#254A74"/>
<path d="M180.95 334.43C209.398 334.43 232.46 311.369 232.46 282.92C232.46 254.472 209.398 231.41 180.95 231.41C152.502 231.41 129.44 254.472 129.44 282.92C129.44 311.369 152.502 334.43 180.95 334.43Z" fill="#7F9AE6"/>
<path opacity="0.2" d="M226.445 307.069C152.928 325.199 142.041 256.333 163.488 234.452C143.637 241.605 129.442 260.602 129.442 282.918C129.442 311.365 152.503 334.425 180.949 334.425C200.667 334.425 217.789 323.342 226.445 307.069Z" fill="#254A74"/>
<path d="M180.95 310.365C196.108 310.365 208.395 298.078 208.395 282.921C208.395 267.763 196.108 255.475 180.95 255.475C165.793 255.475 153.505 267.763 153.505 282.921C153.505 298.078 165.793 310.365 180.95 310.365Z" fill="#BBE0F1"/>
<path d="M331.051 334.43C359.499 334.43 382.561 311.369 382.561 282.92C382.561 254.472 359.499 231.41 331.051 231.41C302.602 231.41 279.541 254.472 279.541 282.92C279.541 311.369 302.602 334.43 331.051 334.43Z" fill="#7F9AE6"/>
<path opacity="0.2" d="M376.547 307.069C303.03 325.199 292.143 256.333 313.59 234.452C293.739 241.605 279.544 260.602 279.544 282.918C279.544 311.365 302.604 334.425 331.051 334.425C350.769 334.425 367.891 323.342 376.547 307.069Z" fill="#254A74"/>
<path d="M331.051 310.365C346.208 310.365 358.496 298.078 358.496 282.921C358.496 267.763 346.208 255.475 331.051 255.475C315.893 255.475 303.606 267.763 303.606 282.921C303.606 298.078 315.893 310.365 331.051 310.365Z" fill="#BBE0F1"/>
<path d="M411.761 181.505C421.964 181.505 430.236 173.234 430.236 163.03C430.236 152.827 421.964 144.555 411.761 144.555C401.557 144.555 393.286 152.827 393.286 163.03C393.286 173.234 401.557 181.505 411.761 181.505Z" fill="#BBE0F1"/>
<path d="M411.761 240.305C421.964 240.305 430.236 232.034 430.236 221.83C430.236 211.627 421.964 203.355 411.761 203.355C401.557 203.355 393.286 211.627 393.286 221.83C393.286 232.034 401.557 240.305 411.761 240.305Z" fill="#BBE0F1"/>
<path d="M441.161 210.905C451.364 210.905 459.636 202.634 459.636 192.43C459.636 182.227 451.364 173.955 441.161 173.955C430.957 173.955 422.686 182.227 422.686 192.43C422.686 202.634 430.957 210.905 441.161 210.905Z" fill="#BBE0F1"/>
<path d="M382.361 210.905C392.564 210.905 400.836 202.634 400.836 192.43C400.836 182.227 392.564 173.955 382.361 173.955C372.157 173.955 363.886 182.227 363.886 192.43C363.886 202.634 372.157 210.905 382.361 210.905Z" fill="#BBE0F1"/>
<path d="M100.238 181.502C90.0351 181.502 81.7631 173.231 81.7631 163.027V155.522C81.7631 149.463 86.6741 144.552 92.7331 144.552H107.743C113.802 144.552 118.713 149.463 118.713 155.522V163.027C118.713 173.23 110.442 181.502 100.238 181.502ZM89.3121 192.428C89.3121 202.631 81.0411 210.903 70.8371 210.903H63.3321C57.2731 210.903 52.3621 205.992 52.3621 199.933V184.923C52.3621 178.864 57.2731 173.953 63.3321 173.953H70.8371C81.0411 173.953 89.3121 182.225 89.3121 192.428ZM100.238 203.354C110.441 203.354 118.713 211.625 118.713 221.829V229.334C118.713 235.393 113.802 240.304 107.743 240.304H92.7331C86.6741 240.304 81.7631 235.393 81.7631 229.334V221.829C81.7631 211.626 90.0351 203.354 100.238 203.354ZM111.165 192.428C111.165 182.225 119.437 173.953 129.64 173.953H137.145C143.204 173.953 148.115 178.864 148.115 184.923V199.933C148.115 205.992 143.204 210.903 137.145 210.903H129.64C119.436 210.903 111.165 202.632 111.165 192.428Z" fill="#BBE0F1"/>
</svg>
