<svg width="469" height="469" viewBox="0 0 469 469" fill="none" xmlns="http://www.w3.org/2000/svg">
<g clip-path="url(#clip0_114_2)">
<path d="M176 352C141.19 352 107.163 341.678 78.2196 322.339C49.2766 303 26.7182 275.512 13.3972 243.352C0.0761671 211.192 -3.40922 175.805 3.38178 141.664C10.1728 107.523 26.9352 76.1632 51.5492 51.5492C76.1632 26.9352 107.523 10.1728 141.664 3.38178C175.805 -3.40922 211.192 0.0761671 243.352 13.3972C275.512 26.7182 303 49.2766 322.339 78.2196C341.678 107.163 352 141.19 352 176C352 222.678 333.457 267.444 300.451 300.451C267.444 333.457 222.678 352 176 352ZM176 32C147.519 32 119.679 40.4454 95.9979 56.2684C72.3172 72.0913 53.8604 94.581 42.9613 120.894C32.0623 147.206 29.2106 176.16 34.7669 204.093C40.3232 232.026 54.0378 257.685 74.1766 277.823C94.3154 297.962 119.974 311.677 147.907 317.233C175.84 322.789 204.794 319.938 231.106 309.039C257.419 298.14 279.909 279.683 295.732 256.002C311.555 232.321 320 204.48 320 176C320 137.809 304.829 101.182 277.823 74.1766C250.818 47.1714 214.191 32 176 32Z" fill="white"/>
<path d="M441.44 464L277.76 300.48L300.32 277.92L464 441.44C466.98 444.438 468.653 448.493 468.653 452.72C468.653 456.947 466.98 461.002 464 464C461.002 466.98 456.947 468.653 452.72 468.653C448.493 468.653 444.438 466.98 441.44 464ZM129.76 256C128.618 257.981 127.064 259.694 125.204 261.024C123.344 262.354 121.22 263.269 118.976 263.709C116.732 264.149 114.42 264.102 112.195 263.573C109.971 263.043 107.885 262.043 106.08 260.64C88.7143 246.276 76.1682 226.934 70.132 205.221C64.0958 183.508 64.8594 160.466 72.32 139.2C73.1904 136.984 74.5442 134.991 76.2826 133.365C78.0211 131.739 80.1005 130.521 82.3692 129.801C84.6379 129.081 87.0388 128.875 89.3969 129.2C91.755 129.525 94.0108 130.373 96 131.68C99.0242 133.692 101.274 136.673 102.379 140.134C103.484 143.594 103.378 147.327 102.08 150.72C96.4426 165.577 95.6671 181.84 99.8652 197.166C104.063 212.492 113.018 226.09 125.44 236C128.383 238.304 130.426 241.566 131.215 245.219C132.004 248.872 131.489 252.687 129.76 256Z" fill="white"/>
</g>
<defs>
<clipPath id="clip0_114_2">
<rect width="469" height="469" fill="white"/>
</clipPath>
</defs>
</svg>
